<svg width="50" height="49" viewBox="0 0 50 49" fill="none" xmlns="http://www.w3.org/2000/svg">
<ellipse cx="25" cy="24.5" rx="25" ry="24.359" fill="#D9D9D9"/>
<path d="M19.7454 14.6035C20.5375 17.7789 9.30571 27.2291 6.21099 19.5363C4.41627 15.079 2.84905 5.73463 4.63053 5.29046C6.41201 4.8475 18.9546 11.4269 19.7454 14.6035Z" fill="#F4900C"/>
<path d="M17.3453 15.2692C18.5009 17.1204 15.1413 20.7592 13.2913 21.916C11.44 23.0728 9.80172 21.2516 7.97811 16.6029C7.18126 14.5698 5.97275 9.05564 6.65043 8.63194C7.32691 8.20944 16.1886 13.4179 17.3453 15.2692Z" fill="#A0041E"/>
<path d="M30.7304 14.6035C29.9396 17.7801 41.1702 27.2291 44.2661 19.5363C46.0596 15.079 47.6268 5.73463 45.8453 5.29046C44.0639 4.8475 31.5225 11.4269 30.7304 14.6035Z" fill="#F4900C"/>
<path d="M33.1321 15.2692C31.9766 17.1205 35.3361 20.7593 37.1862 21.916C39.0363 23.0728 40.6745 21.2516 42.4982 16.6029C43.295 14.571 44.5035 9.05688 43.827 8.63317C43.1494 8.20947 34.2889 13.4179 33.1321 15.2692Z" fill="#A0041E"/>
<path d="M42.5148 35.1989C42.5148 34.6524 42.2885 33.8857 42.0249 33.1683C42.729 33.202 43.8533 33.3982 45.3591 34.1517C45.3495 33.5065 45.2171 32.9672 45.0305 32.4749C45.0799 32.499 45.1208 32.5159 45.1701 32.5411C43.8424 28.5569 41.1871 25.9003 41.1871 25.9003H43.8424C41.0366 20.2874 37.8661 16.2526 34.1225 14.3941C32.4494 13.3433 29.6833 12.7836 25.2476 12.7823H25.244C20.7964 12.7823 18.0266 13.3457 16.3547 14.4025C12.6184 16.2647 9.45266 20.2959 6.65164 25.9003H9.30822C9.30822 25.9003 6.65164 28.5557 5.32276 32.5411C5.35887 32.5231 5.38896 32.511 5.42387 32.493C5.18192 32.9648 5.05433 33.5125 5.08442 34.1505C6.6047 33.3897 7.75303 33.1971 8.47044 33.1658C8.24294 33.7833 8.05757 34.4225 8.00581 34.9413C7.85775 35.3879 7.7759 35.9187 7.84331 36.5579C11.7036 34.8041 13.5091 35.0545 15.6156 36.1077C17.0757 40.4687 20.6784 43.7307 25.2464 43.7307C29.8121 43.7307 33.3666 40.3676 34.8255 36.0078C36.5805 34.5032 39.2888 34.9545 42.5485 36.5085C42.6279 36.0102 42.5918 35.5781 42.5051 35.1929L42.5148 35.1989Z" fill="#F18F26"/>
<path d="M41.1856 31.2136C41.1928 31.2136 42.5193 31.2172 45.1686 32.5412C43.6652 29.1239 36.1108 27.6422 33.2147 28.5799C31.8051 30.9319 31.6727 34.602 29.1425 36.5508C27.0469 38.2733 23.4695 38.3058 21.3437 36.5508C18.5211 34.2349 18.2635 29.5537 17.2728 28.5799C14.3755 27.6398 6.82348 29.1263 5.31885 32.5412C7.9682 31.216 9.29588 31.2136 9.3019 31.2136C9.3019 31.2148 7.97422 33.8713 7.97422 35.199L7.97542 35.1978V35.199C10.8619 33.3056 14.1336 32.4654 16.9177 34.6549C18.9231 44.1895 31.7148 43.7369 33.5685 34.6549C36.3539 32.4666 39.6232 33.3044 42.5109 35.199C42.5133 33.8713 41.1868 31.2136 41.1856 31.2136Z" fill="#FFD983"/>
<path d="M16.8191 23.2678C16.8191 23.2678 16.8191 21.4623 18.6246 21.4623C20.4302 21.4623 20.4302 23.2678 20.4302 23.2678V25.0734C20.4302 25.0734 20.4302 26.8789 18.6246 26.8789C16.8191 26.8789 16.8191 25.0734 16.8191 25.0734V23.2678ZM30.0598 23.2678C30.0598 23.2678 30.0598 21.4623 31.8654 21.4623C33.6709 21.4623 33.6709 23.2678 33.6709 23.2678V25.0734C33.6709 25.0734 33.6709 26.8789 31.8654 26.8789C30.0598 26.8789 30.0598 25.0734 30.0598 25.0734V23.2678ZM21.5605 36.2775C20.3315 36.5278 24.0172 41.0537 25.2462 41.0537C26.474 41.0537 30.1597 36.5278 28.932 36.2775C27.703 36.0271 22.7895 36.0271 21.5605 36.2775Z" fill="#272B2B"/>
</svg>
