<svg width="24" height="25" viewBox="0 0 24 25" fill="none" xmlns="http://www.w3.org/2000/svg">
<path d="M15.6251 16.475C15.4751 16.3083 15.4001 16.125 15.4001 15.925C15.4001 15.725 15.4751 15.55 15.6251 15.4L17.5251 13.5H9.8751C9.65843 13.5 9.47943 13.429 9.3381 13.287C9.1961 13.1457 9.1251 12.9667 9.1251 12.75C9.1251 12.5333 9.1961 12.354 9.3381 12.212C9.47943 12.0707 9.65843 12 9.8751 12H17.5251L15.6251 10.075C15.4751 9.925 15.4001 9.75 15.4001 9.55C15.4001 9.35 15.4751 9.175 15.6251 9.025C15.7751 8.875 15.9501 8.8 16.1501 8.8C16.3501 8.8 16.5168 8.86667 16.6501 9L19.7751 12.125C19.8584 12.2083 19.9211 12.304 19.9631 12.412C20.0044 12.5207 20.0251 12.6333 20.0251 12.75C20.0251 12.8667 20.0044 12.979 19.9631 13.087C19.9211 13.1957 19.8584 13.2917 19.7751 13.375L16.6501 16.5C16.5001 16.6667 16.3294 16.7417 16.1381 16.725C15.9461 16.7083 15.7751 16.625 15.6251 16.475ZM5.4001 21.5C4.9001 21.5 4.4751 21.325 4.1251 20.975C3.7751 20.625 3.6001 20.2 3.6001 19.7V5.8C3.6001 5.3 3.7751 4.875 4.1251 4.525C4.4751 4.175 4.9001 4 5.4001 4H11.3751C11.5751 4 11.7501 4.07067 11.9001 4.212C12.0501 4.354 12.1251 4.53333 12.1251 4.75C12.1251 4.96667 12.0501 5.14567 11.9001 5.287C11.7501 5.429 11.5751 5.5 11.3751 5.5H5.4001C5.33343 5.5 5.26676 5.53333 5.2001 5.6C5.13343 5.66667 5.1001 5.73333 5.1001 5.8V19.7C5.1001 19.7667 5.13343 19.8333 5.2001 19.9C5.26676 19.9667 5.33343 20 5.4001 20H11.3751C11.5751 20 11.7501 20.0707 11.9001 20.212C12.0501 20.354 12.1251 20.5333 12.1251 20.75C12.1251 20.9667 12.0501 21.146 11.9001 21.288C11.7501 21.4293 11.5751 21.5 11.3751 21.5H5.4001Z" fill="black"/>
</svg>
